<svg aria-hidden="true" style="position: absolute; width: 0; height: 0; overflow: hidden;" version="1.1" xmlns="http://www.w3.org/2000/svg" xmlns:xlink="http://www.w3.org/1999/xlink">
<defs>
<symbol id="icon-document-scan" viewBox="0 0 32 32">
<path d="M19 29h-2v-1h2v1zM20 29h2v-1h-2v1zM13 29h-2v-1h2v1zM14 29h2v-1h-2v1zM10 29h-1.003c-1.107 0-1.997-0.899-1.997-2.007v-0.993h1v1.002c0 0.551 0.455 0.998 1 0.998h1v1zM26 22v-2h-1v2h1zM26 23v2h-1v-2h1zM7 22v-2h1v2h-1zM7 23v2h1v-2h-1zM27 18v-2h1v5h-1v-2h-21v2h-1v-5h1v2h21zM26 17v-7h-4.994c-1.108 0-2.006-0.887-2.006-1.998v-6.002h-9.991c-1.109 0-2.009 0.898-2.009 2.007v12.993h19zM26 26v1.003c0 1.107-0.894 1.997-1.997 1.997h-1.003v-1h1c0.552 0 1-0.446 1-0.998v-1.002h1zM20 2v5.997c0 0.554 0.451 1.003 0.991 1.003h5.009l-6-7z"></path>
</symbol>
<symbol id="icon-wallet" viewBox="0 0 32 32">
<path d="M16 20c0-1.105 0.895-2 2-2s2 0.895 2 2c0 1.105-0.895 2-2 2s-2-0.895-2-2zM29.001 13c-0.001 0-0.001 0 0 0l-0.001-6v-3c0-1.657-1.344-3-3-3h-20.5c-3.033 0-5.5 2.468-5.5 5.5v20c0 3.032 2.467 5.5 5.5 5.5h18c3.032 0 5.5-2.468 5.5-5.5v-1.5c0 0 0 0 0.001 0 3.998-3.001 3.998-8.999 0-12zM5.5 3h20.5c0.551 0 1 0.448 1 1v6.184c-0.314-0.112-0.648-0.184-1-0.184h-0.001v-5c0-0.553-0.448-1-1-1h-21c-0.552 0-1 0.447-1 1v3.943c-0.617-0.631-0.999-1.491-0.999-2.443 0-1.933 1.566-3.5 3.5-3.5zM24.999 6h-21v-1h21v1zM24.999 7v1h-21v-1h21zM24.999 9v1h-19.499c-0.54 0-1.044-0.132-1.5-0.35v-0.65h20.999zM27 26.5c0 1.933-1.567 3.5-3.5 3.5h-18c-1.934 0-3.5-1.567-3.5-3.5v-15.761c0.951 0.787 2.171 1.261 3.5 1.261h20.5c0.551 0 1 0.448 1 1v2h-9c-2.762 0-5 2.238-5 5s2.239 5 5 5h9v1.5zM28.277 23h-10.277c-1.654 0-3-1.346-3-3s1.346-3 3-3h9c0.617-0.008 1.229-0.307 1.602-0.804 0.104-0.14 0.185-0.297 0.25-0.461 0.009-0.022 0.025-0.039 0.033-0.062 0.719 0.943 1.115 2.099 1.115 3.327 0 1.538-0.621 2.965-1.723 4z"></path>
</symbol>
<symbol id="icon-banknote" viewBox="0 0 32 32">
<path d="M31.415 10.586l-10-10c-0.496-0.496-1.215-0.695-1.896-0.527-0.359 0.088-0.68 0.273-0.934 0.527-0.227 0.227-0.398 0.508-0.496 0.822-0.453 1.469-1.236 2.746-2.395 3.904-1.548 1.547-3.564 2.719-5.697 3.958-2.264 1.312-4.603 2.672-6.52 4.588-1.629 1.631-2.738 3.445-3.388 5.551-0.219 0.711-0.028 1.48 0.496 2.006l10 10c0.496 0.496 1.215 0.695 1.896 0.527 0.359-0.090 0.68-0.273 0.934-0.527 0.227-0.227 0.398-0.508 0.496-0.824 0.454-1.469 1.237-2.746 2.397-3.904 1.547-1.547 3.562-2.717 5.697-3.955 2.262-1.314 4.602-2.674 6.518-4.59 1.629-1.629 2.738-3.445 3.389-5.551 0.218-0.71 0.026-1.482-0.497-2.005zM12 30c-3.312-3.312-6.688-6.689-10-10 2.842-9.201 15.16-8.799 18-18 3.312 3.311 6.689 6.688 10.002 10-2.843 9.199-15.161 8.799-18.002 18zM19.562 14.9c-0.326-0.273-0.654-0.459-0.984-0.551-0.328-0.092-0.656-0.129-0.988-0.105-0.328 0.025-0.664 0.1-1 0.229-0.336 0.131-0.674 0.273-1.014 0.438-0.537-0.617-1.074-1.227-1.611-1.793 0.242-0.219 0.477-0.33 0.703-0.338 0.227-0.010 0.445 0.014 0.652 0.066 0.211 0.053 0.404 0.098 0.582 0.133 0.18 0.035 0.336-0.004 0.473-0.119 0.145-0.125 0.225-0.287 0.236-0.482 0.010-0.197-0.064-0.389-0.229-0.576-0.211-0.242-0.465-0.389-0.77-0.443-0.301-0.053-0.609-0.049-0.93 0.021-0.316 0.072-0.617 0.191-0.902 0.359s-0.514 0.34-0.684 0.508c-0.065-0.062-0.13-0.123-0.195-0.184-0.072-0.066-0.162-0.102-0.27-0.1-0.109 0-0.199 0.047-0.273 0.133-0.072 0.084-0.105 0.182-0.092 0.285 0.010 0.107 0.053 0.189 0.127 0.252 0.065 0.055 0.13 0.109 0.195 0.166-0.256 0.309-0.467 0.65-0.633 1.010-0.168 0.361-0.268 0.719-0.305 1.066-0.039 0.35-0.002 0.67 0.105 0.967 0.107 0.299 0.305 0.553 0.594 0.793 0.471 0.391 1.025 0.557 1.668 0.52 0.641-0.039 1.332-0.23 2.075-0.629 0.59 0.682 1.182 1.359 1.773 1.988-0.25 0.211-0.469 0.332-0.662 0.371-0.193 0.041-0.365 0.037-0.521-0.010-0.156-0.049-0.301-0.119-0.434-0.209-0.133-0.092-0.264-0.17-0.395-0.234-0.129-0.064-0.262-0.1-0.398-0.102s-0.281 0.064-0.441 0.201c-0.164 0.143-0.246 0.309-0.246 0.496s0.086 0.375 0.254 0.566c0.17 0.191 0.391 0.352 0.658 0.479s0.569 0.207 0.901 0.229c0.332 0.023 0.682-0.027 1.051-0.164 0.371-0.135 0.738-0.379 1.1-0.742 0.174 0.17 0.35 0.332 0.525 0.488 0.074 0.064 0.164 0.096 0.273 0.088 0.105-0.004 0.197-0.053 0.27-0.141 0.074-0.090 0.105-0.189 0.094-0.293-0.010-0.105-0.053-0.186-0.125-0.244-0.176-0.141-0.352-0.289-0.527-0.445 0.299-0.367 0.539-0.754 0.717-1.137 0.178-0.385 0.283-0.756 0.318-1.1 0.035-0.346-0.006-0.658-0.119-0.941-0.112-0.287-0.311-0.533-0.596-0.77zM13.971 15.578c-0.283 0.012-0.53-0.082-0.746-0.291-0.092-0.088-0.156-0.195-0.195-0.322-0.041-0.127-0.055-0.266-0.039-0.418 0.014-0.15 0.059-0.307 0.137-0.465 0.074-0.158 0.184-0.316 0.324-0.469 0.507 0.504 1.013 1.057 1.52 1.629-0.384 0.211-0.718 0.324-1.001 0.336zM18.688 17.58c-0.090 0.166-0.193 0.314-0.314 0.443-0.561-0.566-1.121-1.188-1.68-1.826 0.143-0.064 0.293-0.131 0.455-0.199s0.324-0.113 0.486-0.141c0.166-0.025 0.33-0.018 0.494 0.021 0.162 0.041 0.316 0.129 0.459 0.268 0.141 0.141 0.23 0.287 0.266 0.445 0.039 0.16 0.041 0.322 0.014 0.488-0.029 0.167-0.088 0.333-0.18 0.501zM14.717 22.18c0.197-0.159 0.487-0.151 0.668 0.033 0.196 0.195 0.196 0.514 0 0.709-0.016 0.016-0.033 0.027-0.051 0.041l0.002 0.002c-0.633 0.481-1.153 0.914-1.714 1.475-0.507 0.506-0.965 1.039-1.361 1.58l-0.639 0.875c-0.020 0.036-0.044 0.069-0.074 0.1-0.196 0.195-0.515 0.195-0.71 0-0.17-0.17-0.191-0.432-0.066-0.627l-0.002-0.002 0.684-0.934c0.427-0.584 0.918-1.156 1.461-1.699 0.565-0.567 1.175-1.073 1.8-1.553h0.002zM18.378 7.715c0.506-0.506 0.963-1.037 1.36-1.581l0.664-0.91c0.024-0.043 0.051-0.086 0.088-0.123 0.197-0.197 0.516-0.197 0.713 0 0.187 0.188 0.195 0.485 0.025 0.684l0.002 0.002-0.684 0.938c-0.428 0.584-0.918 1.154-1.461 1.697-0.565 0.565-1.174 1.073-1.799 1.553l-0.004-0.002c-0.199 0.183-0.508 0.179-0.699-0.014-0.197-0.197-0.197-0.518 0-0.715 0.035-0.037 0.076-0.063 0.117-0.086 0.588-0.449 1.155-0.92 1.678-1.443z"></path>
</symbol>
<symbol id="icon-camera" viewBox="0 0 32 32">
<path d="M9.5 19c0 3.59 2.91 6.5 6.5 6.5s6.5-2.91 6.5-6.5-2.91-6.5-6.5-6.5-6.5 2.91-6.5 6.5zM30 8h-7c-0.5-2-1-4-3-4h-8c-2 0-2.5 2-3 4h-7c-1.1 0-2 0.9-2 2v18c0 1.1 0.9 2 2 2h28c1.1 0 2-0.9 2-2v-18c0-1.1-0.9-2-2-2zM16 27.875c-4.902 0-8.875-3.973-8.875-8.875s3.973-8.875 8.875-8.875c4.902 0 8.875 3.973 8.875 8.875s-3.973 8.875-8.875 8.875zM30 14h-4v-2h4v2z"></path>
</symbol>
<symbol id="icon-book" viewBox="0 0 32 32">
<path d="M28 4v26h-21c-1.657 0-3-1.343-3-3s1.343-3 3-3h19v-24h-20c-2.2 0-4 1.8-4 4v24c0 2.2 1.8 4 4 4h24v-28h-2z"></path>
<path d="M7.002 26v0c-0.001 0-0.001 0-0.002 0-0.552 0-1 0.448-1 1s0.448 1 1 1c0.001 0 0.001-0 0.002-0v0h18.997v-2h-18.997z"></path>
</symbol>
<symbol id="icon-library" viewBox="0 0 34 32">
<path d="M32 30v-2h-2v-12h2v-2h-6v2h2v12h-6v-12h2v-2h-6v2h2v12h-6v-12h2v-2h-6v2h2v12h-6v-12h2v-2h-6v2h2v12h-2v2h-2v2h34v-2h-2z"></path>
<path d="M16 0h2l16 10v2h-34v-2l16-10z"></path>
</symbol>
<symbol id="icon-coin-yen" viewBox="0 0 32 32">
<path d="M15 2c-8.284 0-15 6.716-15 15s6.716 15 15 15c8.284 0 15-6.716 15-15s-6.716-15-15-15zM15 29c-6.627 0-12-5.373-12-12s5.373-12 12-12c6.627 0 12 5.373 12 12s-5.373 12-12 12z"></path>
<path d="M19 18c0.552 0 1-0.448 1-1s-0.448-1-1-1h-2.131l2.963-4.445c0.306-0.46 0.182-1.080-0.277-1.387s-1.080-0.182-1.387 0.277l-3.168 4.752-3.168-4.752c-0.306-0.46-0.927-0.584-1.387-0.277s-0.584 0.927-0.277 1.387l2.964 4.445h-2.132c-0.552 0-1 0.448-1 1s0.448 1 1 1h3v2h-3c-0.552 0-1 0.448-1 1s0.448 1 1 1h3v3c0 0.552 0.448 1 1 1s1-0.448 1-1v-3h3c0.552 0 1-0.448 1-1s-0.448-1-1-1h-3v-2h3z"></path>
</symbol>
<symbol id="icon-spoon-knife" viewBox="0 0 32 32">
<path d="M7 0c-3.314 0-6 3.134-6 7 0 3.31 1.969 6.083 4.616 6.812l-0.993 16.191c-0.067 1.098 0.778 1.996 1.878 1.996h1c1.1 0 1.945-0.898 1.878-1.996l-0.993-16.191c2.646-0.729 4.616-3.502 4.616-6.812 0-3.866-2.686-7-6-7zM27.167 0l-1.667 10h-1.25l-0.833-10h-0.833l-0.833 10h-1.25l-1.667-10h-0.833v13c0 0.552 0.448 1 1 1h2.604l-0.982 16.004c-0.067 1.098 0.778 1.996 1.878 1.996h1c1.1 0 1.945-0.898 1.878-1.996l-0.982-16.004h2.604c0.552 0 1-0.448 1-1v-13h-0.833z"></path>
</symbol>
<symbol id="icon-rocket" viewBox="0 0 32 32">
<path d="M22 2l-10 10h-6l-6 8c0 0 6.357-1.77 10.065-0.94l-10.065 12.94 13.184-10.255c1.839 4.208-1.184 10.255-1.184 10.255l8-6v-6l10-10 2-10-10 2z"></path>
</symbol>
<symbol id="icon-hammer2" viewBox="0 0 32 32">
<path d="M31.568 28.617l-17.145-15.608 0.798-0.8c0.653-0.655 1.006-1.501 1.060-2.363 0.031-0.014 0.063-0.028 0.092-0.045l3.218-2.013c0.435-0.512 0.404-1.321-0.071-1.797l-5.598-5.613c-0.475-0.476-1.281-0.508-1.792-0.071l-2.007 3.227c-0.016 0.030-0.031 0.061-0.045 0.093-0.859 0.054-1.703 0.408-2.356 1.063l-3.045 3.053c-0.653 0.655-1.006 1.501-1.060 2.363-0.031 0.014-0.063 0.029-0.093 0.045l-3.218 2.013c-0.436 0.512-0.404 1.321 0.071 1.797l5.598 5.613c0.475 0.476 1.281 0.508 1.792 0.071l2.007-3.227c0.017-0.030 0.031-0.061 0.045-0.093 0.859-0.054 1.703-0.408 2.356-1.063l0.884-0.887 15.566 17.191c0.451 0.498 1.147 0.579 1.546 0.178l1.574-1.578c0.399-0.4 0.319-1.098-0.178-1.55z"></path>
</symbol>
<symbol id="icon-fire" viewBox="0 0 32 32">
<path d="M10.031 32c-2.133-4.438-0.997-6.981 0.642-9.376 1.795-2.624 2.258-5.221 2.258-5.221s1.411 1.834 0.847 4.703c2.493-2.775 2.963-7.196 2.587-8.889 5.635 3.938 8.043 12.464 4.798 18.783 17.262-9.767 4.294-24.38 2.036-26.027 0.753 1.646 0.895 4.433-0.625 5.785-2.573-9.759-8.937-11.759-8.937-11.759 0.753 5.033-2.728 10.536-6.084 14.648-0.118-2.007-0.243-3.392-1.298-5.312-0.237 3.646-3.023 6.617-3.777 10.27-1.022 4.946 0.765 8.568 7.555 12.394z"></path>
</symbol>
<symbol id="icon-shield" viewBox="0 0 32 32">
<path d="M30 0l-14 4-14-4c0 0-0.141 1.616 0 4l14 4.378 14-4.378c0.141-2.384 0-4 0-4zM2.256 6.097c0.75 7.834 3.547 21.007 13.744 25.903 10.197-4.896 12.995-18.069 13.744-25.903l-13.744 5.167-13.744-5.167z"></path>
</symbol>
<symbol id="icon-earth" viewBox="0 0 32 32">
<path d="M16 0c-8.837 0-16 7.163-16 16s7.163 16 16 16 16-7.163 16-16-7.163-16-16-16zM16 30c-1.967 0-3.84-0.407-5.538-1.139l7.286-8.197c0.163-0.183 0.253-0.419 0.253-0.664v-3c0-0.552-0.448-1-1-1-3.531 0-7.256-3.671-7.293-3.707-0.188-0.188-0.442-0.293-0.707-0.293h-4c-0.552 0-1 0.448-1 1v6c0 0.379 0.214 0.725 0.553 0.894l3.447 1.724v5.871c-3.627-2.53-6-6.732-6-11.489 0-2.147 0.484-4.181 1.348-6h3.652c0.265 0 0.52-0.105 0.707-0.293l4-4c0.188-0.188 0.293-0.442 0.293-0.707v-2.419c1.268-0.377 2.61-0.581 4-0.581 2.2 0 4.281 0.508 6.134 1.412-0.13 0.109-0.256 0.224-0.376 0.345-1.133 1.133-1.757 2.64-1.757 4.243s0.624 3.109 1.757 4.243c1.139 1.139 2.663 1.758 4.239 1.758 0.099 0 0.198-0.002 0.297-0.007 0.432 1.619 1.211 5.833-0.263 11.635-0.014 0.055-0.022 0.109-0.026 0.163-2.541 2.596-6.084 4.208-10.004 4.208z"></path>
</symbol>
<symbol id="icon-flag" viewBox="0 0 32 32">
<path d="M0 0h4v32h-4v-32z"></path>
<path d="M26 20.094c2.582 0 4.83-0.625 6-1.547v-16c-1.17 0.922-3.418 1.547-6 1.547s-4.83-0.625-6-1.547v16c1.17 0.922 3.418 1.547 6 1.547z"></path>
<path d="M19 1.016c-1.466-0.623-3.61-1.016-6-1.016-3.012 0-5.635 0.625-7 1.547v16c1.365-0.922 3.988-1.547 7-1.547 2.39 0 4.534 0.393 6 1.016v-16z"></path>
</symbol>
<symbol id="icon-pencil" viewBox="0 0 32 32" version="1.1" xmlns="http://www.w3.org/2000/svg">
<path d="M30.133 1.552c-1.090-1.044-2.291-1.573-3.574-1.573-2.006 0-3.47 1.296-3.87 1.693-0.564 0.558-19.786 19.788-19.786 19.788-0.126 0.126-0.217 0.284-0.264 0.456-0.433 1.602-2.605 8.71-2.627 8.782-0.112 0.364-0.012 0.761 0.256 1.029 0.193 0.192 0.45 0.295 0.713 0.295 0.104 0 0.208-0.016 0.31-0.049 0.073-0.024 7.41-2.395 8.618-2.756 0.159-0.048 0.305-0.134 0.423-0.251 0.763-0.754 18.691-18.483 19.881-19.712 1.231-1.268 1.843-2.59 1.819-3.925-0.025-1.319-0.664-2.589-1.901-3.776zM22.37 4.87c0.509 0.123 1.711 0.527 2.938 1.765 1.24 1.251 1.575 2.681 1.638 3.007-3.932 3.912-12.983 12.867-16.551 16.396-0.329-0.767-0.862-1.692-1.719-2.555-1.046-1.054-2.111-1.649-2.932-1.984 3.531-3.532 12.753-12.757 16.625-16.628zM4.387 23.186c0.55 0.146 1.691 0.57 2.854 1.742 0.896 0.904 1.319 1.9 1.509 2.508-1.39 0.447-4.434 1.497-6.367 2.121 0.573-1.886 1.541-4.822 2.004-6.371zM28.763 7.824c-0.041 0.042-0.109 0.11-0.19 0.192-0.316-0.814-0.87-1.86-1.831-2.828-0.981-0.989-1.976-1.572-2.773-1.917 0.068-0.067 0.12-0.12 0.141-0.14 0.114-0.113 1.153-1.106 2.447-1.106 0.745 0 1.477 0.34 2.175 1.010 0.828 0.795 1.256 1.579 1.27 2.331 0.014 0.768-0.404 1.595-1.24 2.458z"></path>
</symbol>
<symbol id="icon-expand-plus" viewBox="0 0 32 32"><path d="M19 13h-6v6h-2v-6H5v-2h6V5h2v6h6v2z" /></symbol><symbol id="icon-error" viewBox="0 0 24 24"><path d="M13 13h-2V7h2v6zm-1 4.3a1.299 1.299 0 110-2.598 1.299 1.299 0 010 2.598zM15.73 3H8.27L3 8.27v7.46L8.27 21h7.46L21 15.73V8.27L15.73 3z" /></symbol><symbol id="icon-info" viewBox="0 0 24 24"><path d="M12 2C6.48 2 2 6.48 2 12s4.48 10 10 10 10-4.48 10-10S17.52 2 12 2zm1 15h-2v-6h2v6zm0-8h-2V7h2v2z" /></symbol><symbol id="icon-success" viewBox="0 0 24 24"><path d="M12 2C6.48 2 2 6.48 2 12s4.48 10 10 10 10-4.48 10-10S17.52 2 12 2zm-2 15l-4.328-4.328 1.41-1.41L10 14.17l6.333-6.333 1.41 1.42L10 17z" /></symbol><symbol id="icon-warning" viewBox="0 0 24 24"><path d="M1 21h22L12 2 1 21zm12-3h-2v-2h2v2zm0-4h-2V9h2v5z" /></symbol><symbol id="icon-add-circle-solid" viewBox="0 0 24 24"><path d="M12 2C6.48 2 2 6.48 2 12s4.48 10 10 10 10-4.48 10-10S17.52 2 12 2zm5 11h-4v4h-2v-4H7v-2h4V7h2v4h4v2z" /></symbol><symbol id="icon-loading-spinner" viewBox="0 0 24 24"><path d="M4.979 4.879l-.05.05c-3.903 3.903-3.903 10.239 0 14.142s10.239 3.903 14.142 0c3.903-3.903 3.903-10.239 0-14.142l-.152-.149-2.122 2.122a7.004 7.004 0 01.153 10.049 7.002 7.002 0 01-9.899 0 7.004 7.004 0 010-9.9l.051-.05L4.981 4.88z" /></symbol><symbol id="icon-collapse-minus" viewBox="0 0 24 24"><path d="M5 11v2h14v-2H5z" /></symbol><symbol id="icon-tick" viewBox="0 0 24 24"><path d="M9 16.17L4.83 12l-1.42 1.41L9 19 21 7l-1.41-1.41L9 16.17z" /></symbol><symbol id="icon-close" viewBox="0 0 24 24"><path d="M19 6.41L17.59 5 12 10.59 6.41 5 5 6.41 10.59 12 5 17.59 6.41 19 12 13.41 17.59 19 19 17.59 13.41 12 19 6.41z" /></symbol><symbol id="icon-wishlisted" viewBox="0 0 24 24"><path d="M12 21.35l-1.45-1.32C5.4 15.36 2 12.28 2 8.5 2 5.42 4.42 3 7.5 3c1.74 0 3.41.81 4.5 2.09C13.09 3.81 14.76 3 16.5 3 19.58 3 22 5.42 22 8.5c0 3.78-3.4 6.86-8.55 11.54L12 21.35z" /></symbol><symbol id="icon-rating-star" viewBox="0 0 24 24"><path d="M12 17.27L18.18 21l-1.64-7.03L22 9.24l-7.19-.61L12 2 9.19 8.63 2 9.24l5.46 4.73L5.82 21 12 17.27z" /></symbol><symbol id="icon-play-overlay" viewBox="0 0 24 24"><circle cy="12" cx="12" fill="#1e1e1c" r="10" /><path d="M0 12A12 12 0 1012 0 12 12 0 000 12zm18 .137L8.4 16.8V7.2l9.6 4.937z" /></symbol>
<symbol id="icon-article" viewBox="0 0 24 24"><path d="M14 2H6c-1.1 0-1.99.9-1.99 2L4 20c0 1.1.89 2 1.99 2H18c1.1 0 2-.9 2-2V8l-6-6zM6 20V4h7v5h5v11H6z" /></symbol><symbol id="icon-collapse" viewBox="0 0 24 24"><path d="M7.41 15.41L12 10.83l4.59 4.58L18 14l-6-6-6 6 1.41 1.41z" /></symbol><symbol id="icon-expand" viewBox="0 0 24 24"><path d="M16.59 8.59L12 13.17 7.41 8.59 6 10l6 6 6-6-1.41-1.41z" /></symbol><symbol id="icon-delete" viewBox="0 0 24 24"><path d="M6 19c0 1.1.9 2 2 2h8c1.1 0 2-.9 2-2V7H6v12zM19 4h-3.5l-1-1h-5l-1 1H5v2h14V4z" /></symbol><symbol id="icon-next" viewBox="0 0 24 24"><path d="M8.59 7.41L13.17 12l-4.58 4.59L10 18l6-6-6-6-1.41 1.41z" /></symbol><symbol id="icon-previous" viewBox="0 0 24 24"><path d="M15.41 16.59L10.83 12l4.58-4.59L14 6l-6 6 6 6 1.41-1.41z" /></symbol><symbol id="icon-schedule" viewBox="0 0 24 24"><path d="M11 7h1.5v5.25l4.5 2.67-.75 1.23L11 13V7z" /><path fill-rule="evenodd" clip-rule="evenodd" d="M2 12C2 6.48 6.47 2 11.99 2 17.52 2 22 6.48 22 12s-4.48 10-10.01 10C6.47 22 2 17.52 2 12zm2 0c0 4.42 3.58 8 8 8s8-3.58 8-8-3.58-8-8-8-8 3.58-8 8z" /></symbol><symbol id="icon-language" viewBox="0 0 24 24"><path d="M11.99 2C6.47 2 2 6.48 2 12s4.47 10 9.99 10C17.52 22 22 17.52 22 12S17.52 2 11.99 2zm6.93 6h-2.95a15.65 15.65 0 00-1.38-3.56A8.03 8.03 0 0118.92 8zM12 4.04c.83 1.2 1.48 2.53 1.91 3.96h-3.82c.43-1.43 1.08-2.76 1.91-3.96zM4.26 14C4.1 13.36 4 12.69 4 12s.1-1.36.26-2h3.38c-.08.66-.14 1.32-.14 2s.06 1.34.14 2H4.26zm.82 2h2.95c.32 1.25.78 2.45 1.38 3.56A7.987 7.987 0 015.08 16zm2.95-8H5.08a7.987 7.987 0 014.33-3.56A15.65 15.65 0 008.03 8zM12 19.96c-.83-1.2-1.48-2.53-1.91-3.96h3.82c-.43 1.43-1.08 2.76-1.91 3.96zM14.34 14H9.66c-.09-.66-.16-1.32-.16-2s.07-1.35.16-2h4.68c.09.65.16 1.32.16 2s-.07 1.34-.16 2zm.25 5.56c.6-1.11 1.06-2.31 1.38-3.56h2.95a8.03 8.03 0 01-4.33 3.56zM16.36 14c.08-.66.14-1.32.14-2s-.06-1.34-.14-2h3.38c.16.64.26 1.31.26 2s-.1 1.36-.26 2h-3.38z" /></symbol><symbol id="icon-play" viewBox="0 0 24 24"><path d="M2 12c0 5.525 4.475 10 10 10s10-4.475 10-10S17.525 2 12 2 2 6.475 2 12zm15 .114L9 16V8l8 4.114z" /></symbol><symbol id="icon-labs" viewBox="0 0 24 24"><path d="M5 19a1 1 0 001 1h12a1 1 0 001-1c0-.21-.07-.41-.18-.57L13 8.35V4h-2v4.35L5.18 18.43c-.11.16-.18.36-.18.57m1 3a3 3 0 01-3-3c0-.6.18-1.16.5-1.63L9 7.81V6a1 1 0 01-1-1V4a2 2 0 012-2h4a2 2 0 012 2v1a1 1 0 01-1 1v1.81l5.5 9.56c.32.47.5 1.03.5 1.63a3 3 0 01-3 3H6m7-6l1.34-1.34L16.27 18H7.73l2.66-4.61L13 16m-.5-4a.5.5 0 01.5.5.5.5 0 01-.5.5.5.5 0 01-.5-.5.5.5 0 01.5-.5z" /></symbol><symbol id="icon-bar-chart" viewBox="0 0 24 24"><path d="M5 9.2h3V19H5V9.2zM10.6 5h2.8v14h-2.8V5zm5.6 8H19v6h-2.8v-6z" /></symbol><symbol id="icon-cloud" viewBox="0 0 24 24"><path d="M19.35 10.04A7.49 7.49 0 0012 4C9.11 4 6.6 5.64 5.35 8.04A5.994 5.994 0 000 14c0 3.31 2.69 6 6 6h13c2.76 0 5-2.24 5-5 0-2.64-2.05-4.78-4.65-4.96z" /></symbol><symbol id="icon-code" viewBox="0 0 24 24"><path d="M9.4 16.6L4.8 12l4.6-4.6L8 6l-6 6 6 6 1.4-1.4zm5.2 0l4.6-4.6-4.6-4.6L16 6l6 6-6 6-1.4-1.4z" /></symbol><symbol id="icon-security" viewBox="0 0 24 24"><path d="M12 1L3 5v6c0 5.55 3.84 10.74 9 12 5.16-1.26 9-6.45 9-12V5l-9-4zm0 10.99h7c-.53 4.12-3.28 7.79-7 8.94V12H5V6.3l7-3.11v8.8z" /></symbol><symbol id="icon-server" viewBox="0 0 24 24"><path d="M20 13H4c-.55 0-1 .45-1 1v6c0 .55.45 1 1 1h16c.55 0 1-.45 1-1v-6c0-.55-.45-1-1-1zM7 19c-1.1 0-2-.9-2-2s.9-2 2-2 2 .9 2 2-.9 2-2 2zM20 3H4c-.55 0-1 .45-1 1v6c0 .55.45 1 1 1h16c.55 0 1-.45 1-1V4c0-.55-.45-1-1-1zM7 9c-1.1 0-2-.9-2-2s.9-2 2-2 2 .9 2 2-.9 2-2 2z" /></symbol><symbol id="icon-search" viewBox="0 0 24 24"><path d="M15.5 14h-.79l-.28-.27A6.471 6.471 0 0016 9.5 6.5 6.5 0 109.5 16c1.61 0 3.09-.59 4.23-1.57l.27.28v.79l5 4.99L20.49 19l-4.99-5zm-6 0C7.01 14 5 11.99 5 9.5S7.01 5 9.5 5 14 7.01 14 9.5 11.99 14 9.5 14z" /></symbol><symbol id="icon-empty-course-image" fill="none" viewBox="0 0 32 32" xmlns="http://www.w3.org/2000/svg"><rect fill="#dcdacb" height="32" rx="2" width="32" /><path d="M12.667 10.166v11.667L21.833 16z" fill="#73726c" /></symbol><symbol id="icon-person" viewBox="0 0 24 24"><path d="M12 12c2.21 0 4-1.79 4-4s-1.79-4-4-4-4 1.79-4 4 1.79 4 4 4zm0 2c-2.67 0-8 1.34-8 4v2h16v-2c0-2.66-5.33-4-8-4z" /></symbol><symbol id="icon-trending-graph" viewBox="0 0 24 24"><path d="m16 6 2.29 2.29-4.88 4.88-4-4-7.41 7.42 1.41 1.41 6-6 4 4 6.3-6.29 2.29 2.29v-6z" /></symbol><symbol id="icon-notification" viewBox="0 0 24 24"><path d="M12 22c1.1 0 2-.9 2-2h-4c0 1.1.9 2 2 2zm6-6v-5c0-3.07-1.63-5.64-4.5-6.32V4c0-.83-.67-1.5-1.5-1.5s-1.5.67-1.5 1.5v.68C7.64 5.36 6 7.92 6 11v5l-2 2v1h16v-1zm-2 1H8v-6c0-2.48 1.51-4.5 4-4.5s4 2.02 4 4.5z" /></symbol><symbol id="icon-people" viewBox="0 0 24 24"><path d="M16 10c1.66 0 2.99-1.34 2.99-3S17.66 4 16 4c-1.66 0-3 1.34-3 3s1.34 3 3 3zm-8 0c1.66 0 2.99-1.34 2.99-3S9.66 4 8 4C6.34 4 5 5.34 5 7s1.34 3 3 3zm0 2c-2.33 0-7 1.17-7 3.5V20h14v-4.5c0-2.33-4.67-3.5-7-3.5zm8 0c-.29 0-.62.02-.97.05 1.16.84 1.97 1.97 1.97 3.45V20h6v-4.5c0-2.33-4.67-3.5-7-3.5z" /></symbol><symbol id="icon-cart" viewBox="0 0 24 24"><path d="M15.55 13c.75 0 1.41-.41 1.75-1.03l3.58-6.49A.996.996 0 0020.01 4H5.21l-.94-2H1v2h2l3.6 7.59-1.35 2.44C4.52 15.37 5.48 17 7 17h12v-2H7l1.1-2h7.45zM6.16 6h12.15l-2.76 5H8.53L6.16 6zM7 18c-1.1 0-1.99.9-1.99 2S5.9 22 7 22s2-.9 2-2-.9-2-2-2zm10 0c-1.1 0-1.99.9-1.99 2s.89 2 1.99 2 2-.9 2-2-.9-2-2-2z" /></symbol><symbol id="icon-open-in-new" viewBox="0 0 24 24"><path d="M19 19H5V5h7V3H5a2 2 0 00-2 2v14a2 2 0 002 2h14c1.1 0 2-.9 2-2v-7h-2v7zM14 3v2h3.59l-9.83 9.83 1.41 1.41L19 6.41V10h2V3h-7z" /></symbol><symbol id="icon-menu" viewBox="0 0 24 24"><path d="M3 18h18v-2H3v2zm0-5h18v-2H3v2zm0-7v2h18V6H3z" /></symbol><symbol id="icon-info-outline" viewBox="0 0 24 24"><path d="M11 9h2V7h-2v2zm1 11c-4.41 0-8-3.59-8-8s3.59-8 8-8 8 3.59 8 8-3.59 8-8 8zm0-18a10.01 10.01 0 00-7.071 2.929A10.001 10.001 0 1012 2zm-1 15h2v-6h-2v6z" /></symbol><symbol id="icon-filter" viewBox="0 0 24 24"><path d="M10 18h4v-2h-4v2zM3 6v2h18V6H3zm3 7h12v-2H6v2z" /></symbol><symbol id="icon-gift" viewBox="0 0 24 24"><path d="M20 6h-2.18c.11-.31.18-.65.18-1a2.996 2.996 0 00-5.5-1.65l-.5.67-.5-.68C10.96 2.54 10.05 2 9 2 7.34 2 6 3.34 6 5c0 .35.07.69.18 1H4c-1.11 0-1.99.89-1.99 2L2 19c0 1.11.89 2 2 2h16c1.11 0 2-.89 2-2V8c0-1.11-.89-2-2-2zm-5-2c.55 0 1 .45 1 1s-.45 1-1 1-1-.45-1-1 .45-1 1-1zM9 4c.55 0 1 .45 1 1s-.45 1-1 1-1-.45-1-1 .45-1 1-1zm11 15H4v-2h16v2zm0-5H4V8h5.08L7 10.83 8.62 12 12 7.4l3.38 4.6L17 10.83 14.92 8H20v6z" /></symbol><symbol id="icon-marketing" viewBox="0 0 48 48"><path fill-rule="evenodd" clip-rule="evenodd" d="M40.372 4.644v2.981h2.983a.645.645 0 110 1.29h-3.628a.645.645 0 01-.645-.645V4.644a.645.645 0 011.29 0zm1.21 6.044a.646.646 0 00-.645-.646h-2.982v-2.98a.646.646 0 10-1.29 0v3.358l-1.077 1.077a18.723 18.723 0 00-12.8-5.05C12.427 6.448 4 14.872 4 25.225 4 35.577 12.428 44 22.787 44c10.36 0 18.788-8.424 18.788-18.777 0-4.952-1.931-9.457-5.074-12.815l1.074-1.076h3.362a.645.645 0 00.645-.645v.001zM22.786 42.71c-9.648 0-17.497-7.844-17.497-17.487 0-9.642 7.85-17.486 17.497-17.486a17.43 17.43 0 0111.89 4.673l-3.043 3.045c-2.344-2.123-5.442-3.428-8.847-3.428-7.282 0-13.206 5.92-13.206 13.196 0 7.278 5.925 13.198 13.206 13.198 7.282 0 13.206-5.92 13.206-13.198 0-3.41-1.313-6.513-3.445-8.857l3.041-3.044a17.417 17.417 0 014.695 11.902c0 9.642-7.849 17.486-17.497 17.486zm.458-17.03a.645.645 0 01-.912-.912l4.447-4.452a6.301 6.301 0 00-3.992-1.421c-3.491 0-6.332 2.839-6.332 6.328 0 3.489 2.841 6.329 6.332 6.329a6.339 6.339 0 006.333-6.33 6.293 6.293 0 00-1.428-3.996l-4.448 4.453v.001zm-.458-8.074c-4.204 0-7.624 3.418-7.624 7.618s3.42 7.62 7.624 7.62 7.623-3.418 7.623-7.62c0-1.8-.64-3.541-1.805-4.912l3.032-3.033a11.838 11.838 0 013.066 7.944c0 6.565-5.345 11.907-11.915 11.907-6.569 0-11.914-5.343-11.914-11.907 0-6.566 5.345-11.906 11.914-11.906 3.05 0 5.826 1.16 7.936 3.049L27.692 19.4a7.595 7.595 0 00-4.906-1.793v-.001z" /></symbol><symbol id="icon-trending-flame" viewBox="0 0 24 24"><path d="m19.48 12.35c-1.57-4.08-7.16-4.3-5.81-10.23.1-.44-.37-.78-.75-.55-3.63 2.14-6.24 6.43-4.05 12.05.18.46-.36.89-.75.59-1.81-1.37-2-3.34-1.84-4.75.06-.52-.62-.77-.91-.34-.68 1.04-1.37 2.72-1.37 5.25.38 5.6 5.11 7.32 6.81 7.54 2.43.31 5.06-.14 6.95-1.87 2.08-1.93 2.84-5.01 1.72-7.69zm-9.28 5.03c1.44-.35 2.18-1.39 2.38-2.31.33-1.43-.96-2.83-.09-5.09.33 1.87 3.27 3.04 3.27 5.08.08 2.53-2.66 4.7-5.56 2.32z" /></symbol><symbol id="icon-more" viewBox="0 0 24 24"><path d="M12 8c1.1 0 2-.9 2-2s-.9-2-2-2-2 .9-2 2 .9 2 2 2zm0 2c-1.1 0-2 .9-2 2s.9 2 2 2 2-.9 2-2-.9-2-2-2zm0 6c-1.1 0-2 .9-2 2s.9 2 2 2 2-.9 2-2-.9-2-2-2z" /></symbol>
<symbol id="icon-udemy-symbol" viewBox="0 0 24 24"><path d="M17 7.708l-5-2.854-5 2.854V4.854L12 2l5 2.854v2.854z" fill="#a435f0" /><path d="M7 10.104h2.619v6.29c0 1.627 1.228 2.419 2.381 2.419 1.162 0 2.381-.814 2.381-2.44v-6.269H17v6.44c0 1.498-.476 2.654-1.429 3.446-.952.792-2.142 1.177-3.593 1.177-1.45 0-2.64-.386-3.571-1.177C7.476 19.198 7 18.086 7 16.609z" /></symbol><symbol id="icon-access-time" viewBox="0 0 24 24"><path d="M11.99 2C6.47 2 2 6.48 2 12s4.47 10 9.99 10C17.52 22 22 17.52 22 12S17.52 2 11.99 2zM12 20c-4.42 0-8-3.58-8-8s3.58-8 8-8 8 3.58 8 8-3.58 8-8 8z" /><path d="M12.5 7H11v6l5.25 3.15.75-1.23-4.5-2.67z" /></symbol><symbol id="icon-assignment" viewBox="0 0 24 24"><path d="M19 3h-4.18C14.4 1.84 13.3 1 12 1s-2.4.84-2.82 2H5c-1.1 0-2 .9-2 2v14c0 1.1.9 2 2 2h14c1.1 0 2-.9 2-2V5c0-1.1-.9-2-2-2zm-7 0c.55 0 1 .45 1 1s-.45 1-1 1-1-.45-1-1 .45-1 1-1zm2 14H7v-2h7v2zm3-4H7v-2h10v2zm0-4H7V7h10v2z" /></symbol><symbol id="icon-list-alt" viewBox="0 0 24 24"><path d="M19 5v14H5V5h14m1.1-2H3.9c-.5 0-.9.4-.9.9v16.2c0 .4.4.9.9.9h16.2c.4 0 .9-.5.9-.9V3.9c0-.5-.5-.9-.9-.9zM11 7h6v2h-6V7zm0 4h6v2h-6v-2zm0 4h6v2h-6zM7 7h2v2H7zm0 4h2v2H7zm0 4h2v2H7z" /></symbol><symbol id="icon-chat" viewBox="0 0 24 24"><path d="M20 2H4c-1.1 0-1.99.9-1.99 2L2 22l4-4h14c1.1 0 2-.9 2-2V4c0-1.1-.9-2-2-2zM6 9h12v2H6V9zm8 5H6v-2h8v2zm4-6H6V6h12v2z" /></symbol><symbol id="icon-console" viewBox="0 0 24 24"><path d="M20 19V7H4v12h16m0-16a2 2 0 012 2v14a2 2 0 01-2 2H4a2 2 0 01-2-2V5a2 2 0 012-2h16m-7 14v-2h5v2h-5m-3.42-4L5.57 9H8.4l3.3 3.3c.39.39.39 1.03 0 1.42L8.42 17H5.59l3.99-4z" /></symbol>
</defs>
</svg>
